HIERARCHY
ROOT Hips
{
	OFFSET -0.001795 -0.223333 0.028219
	CHANNELS 6 Xposition Yposition Zposition Zrotation Yrotation Xrotation 
	JOINT LeftUpLeg
	{
		OFFSET 0.069520 -0.091406 -0.006815
		CHANNELS 3 Zrotation Yrotation Xrotation
		JOINT LeftLeg
		{
			OFFSET 0.034277 -0.375199 -0.004496
			CHANNELS 3 Zrotation Yrotation Xrotation
			JOINT LeftFoot
			{
				OFFSET -0.013596 -0.397961 -0.043693
				CHANNELS 3 Zrotation Yrotation Xrotation
				JOINT LeftToe
				{
					OFFSET 0.026358 -0.055791 0.119288
					CHANNELS 3 Zrotation Yrotation Xrotation
					End Site
					{
						OFFSET 0.000000 0.000000 0.000000
					}
				}
			}
		}
	}
	JOINT RightUpLeg
	{
		OFFSET -0.067670 -0.090522 -0.004320
		CHANNELS 3 Zrotation Yrotation Xrotation
		JOINT RightLeg
		{
			OFFSET -0.038290 -0.382569 -0.008850
			CHANNELS 3 Zrotation Yrotation Xrotation
			JOINT RightFoot
			{
				OFFSET 0.015774 -0.398415 -0.042312
				CHANNELS 3 Zrotation Yrotation Xrotation
				JOINT RightToe
				{
					OFFSET -0.025372 -0.048144 0.123348
					CHANNELS 3 Zrotation Yrotation Xrotation
					End Site
					{
						OFFSET 0.000000 0.000000 0.000000
					}
				}
			}
		}
	}
	JOINT Spine
	{
		OFFSET -0.002533 0.108963 -0.026696
		CHANNELS 3 Zrotation Yrotation Xrotation
		JOINT Spine1
		{
			OFFSET 0.005487 0.135180 0.001092
			CHANNELS 3 Zrotation Yrotation Xrotation
			JOINT Spine2
			{
				OFFSET 0.001457 0.052922 0.025425
				CHANNELS 3 Zrotation Yrotation Xrotation
				JOINT Neck
				{
					OFFSET -0.002778 0.213870 -0.042857
					CHANNELS 3 Zrotation Yrotation Xrotation
					JOINT Head
					{
						OFFSET 0.005152 0.064970 0.051349
						CHANNELS 3 Zrotation Yrotation Xrotation
						End Site
						{
							OFFSET 0.000000 0.000000 0.000000
						}
					}
				}
				JOINT LeftShoulder
				{
					OFFSET 0.078845 0.121749 -0.034090
					CHANNELS 3 Zrotation Yrotation Xrotation
					JOINT LeftArm
					{
						OFFSET 0.090977 0.030469 -0.008868
						CHANNELS 3 Zrotation Yrotation Xrotation
						JOINT LeftForeArm
						{
							OFFSET 0.259612 -0.012772 -0.027456
							CHANNELS 3 Zrotation Yrotation Xrotation
							JOINT LeftHand
							{
								OFFSET 0.249234 0.008986 -0.001171
								CHANNELS 3 Zrotation Yrotation Xrotation
								End Site
								{
									OFFSET 0.000000 0.000000 0.000000
								}
							}
						}
					}
				}
				JOINT RightShoulder
				{
					OFFSET -0.081759 0.118833 -0.038615
					CHANNELS 3 Zrotation Yrotation Xrotation
					JOINT RightArm
					{
						OFFSET -0.096012 0.032551 -0.009143
						CHANNELS 3 Zrotation Yrotation Xrotation
						JOINT RightForeArm
						{
							OFFSET -0.253742 -0.013329 -0.021401
							CHANNELS 3 Zrotation Yrotation Xrotation
							JOINT RightHand
							{
								OFFSET -0.255298 0.007772 -0.005559
								CHANNELS 3 Zrotation Yrotation Xrotation
								End Site
								{
									OFFSET 0.000000 0.000000 0.000000
								}
							}
						}
					}
				}
			}
		}
	}
}
MOTION
Frames: 13
Frame Time: 0.050000
0.000000 0.933839 0.000000 -0.289946 2.391078 6.463668 7.776352 -0.359377 -4.141480 -0.170108 0.141649 -3.849877 1.855473 6.593055 7.535473 0.000000 0.000000 0.000000 -5.008914 0.498083 -5.728185 -1.756898 0.036063 -2.783483 -1.169854 -5.800436 8.158561 0.000000 0.000000 0.000000 4.731027 0.259928 -5.122448 -2.181108 1.055909 -3.179447 -4.145494 4.943052 6.292242 6.031168 -2.735653 -10.649470 0.000000 0.000000 0.000000 -15.695343 -2.489038 -1.668928 -54.809680 -3.887825 -4.774421 -6.539267 -19.265265 1.590623 0.000000 0.000000 0.000000 13.345836 -4.133806 -2.060221 64.699379 5.394610 -2.914929 5.228381 22.086825 1.973963 0.000000 0.000000 0.000000 
0.000302 0.933101 -0.000039 -0.348457 1.842452 7.017155 8.210370 -0.347929 -3.507911 -0.385651 0.206489 -5.519483 2.209604 7.391627 8.301394 0.000000 0.000000 0.000000 -4.953946 0.572228 -6.813001 -2.063666 0.117671 -1.765679 -0.337932 -4.188162 8.383564 0.000000 0.000000 0.000000 5.883774 0.285302 -5.338587 -2.752247 1.299449 -3.725886 -5.427190 6.301095 6.205303 5.886032 -2.463157 -10.987519 0.000000 0.000000 0.000000 -16.204437 -2.214180 -2.170627 -53.801456 -3.944607 -4.569184 -6.774362 -19.580604 1.601100 0.000000 0.000000 0.000000 13.498035 -5.404121 -2.510281 65.941242 4.747542 -3.136304 5.204792 21.584073 1.965595 0.000000 0.000000 0.000000 
0.000520 0.933594 -0.000303 0.113122 2.259534 7.103858 7.791533 -0.374699 -4.397825 -0.278358 0.142737 -3.640720 1.896160 6.483419 6.985203 0.000000 0.000000 0.000000 -5.482842 0.570786 -7.143539 -1.944178 0.140275 -1.205330 -0.985170 -5.441064 8.215828 0.000000 0.000000 0.000000 5.233577 0.270585 -5.311459 -2.112594 1.038058 -4.742869 -5.974539 5.737951 6.767209 5.917358 -2.544782 -10.811203 0.000000 0.000000 0.000000 -15.971656 -2.266043 -2.035782 -54.046297 -4.204175 -4.556894 -5.866653 -18.371889 1.380353 0.000000 0.000000 0.000000 14.870651 -4.431772 -2.081812 64.158904 4.873049 -3.281129 5.224964 21.348026 1.937638 0.000000 0.000000 0.000000 
0.000756 0.933106 -0.000591 0.315840 2.403605 7.491580 7.999684 -0.394544 -4.843868 -0.530528 0.164020 -3.776200 1.693005 6.290699 7.494275 0.000000 0.000000 0.000000 -5.613022 0.616505 -8.081149 -2.190029 0.187405 -0.806770 -1.021939 -5.620079 8.621923 0.000000 0.000000 0.000000 5.320198 0.277094 -5.470466 -2.530802 1.211675 -4.431670 -6.017800 5.353124 5.861629 5.535890 -2.543249 -9.427704 0.000000 0.000000 0.000000 -15.983812 -2.080957 -2.097614 -54.376819 -4.720204 -4.269953 -4.657012 -18.544863 1.199347 0.000000 0.000000 0.000000 13.738744 -4.417299 -2.100196 65.004745 4.527902 -3.300148 5.335816 21.935272 2.002226 0.000000 0.000000 0.000000 
0.000956 0.933413 -0.001061 0.725077 3.013368 7.755929 7.424613 -0.418951 -5.153966 -0.359849 0.157836 -3.983808 1.269724 5.646430 7.664523 0.000000 0.000000 0.000000 -5.973860 0.593597 -8.001379 -2.612591 0.219946 -0.998401 -1.281069 -6.123945 8.761740 0.000000 0.000000 0.000000 4.700182 0.283002 -5.747881 -1.866830 0.939911 -4.549243 -6.605643 5.296578 5.885678 5.508700 -2.369424 -10.108920 0.000000 0.000000 0.000000 -15.655646 -2.205899 -2.064223 -54.414428 -5.496693 -3.931685 -4.879804 -17.851439 1.179167 0.000000 0.000000 0.000000 14.020469 -5.037146 -2.359017 64.782495 4.358371 -3.372824 5.556494 21.766922 2.042765 0.000000 0.000000 0.000000 
0.001209 0.933749 -0.001556 0.745119 2.889974 8.100482 7.205449 -0.436471 -5.605282 -0.014082 0.126303 -3.710929 1.513235 6.094336 7.737056 0.000000 0.000000 0.000000 -5.858442 0.624650 -8.451459 -3.042759 0.250171 -1.163699 -1.077471 -5.858221 9.267750 0.000000 0.000000 0.000000 4.736878 0.292224 -5.915794 -2.002561 0.997349 -4.778382 -6.673079 5.450626 5.873377 6.020507 -2.793861 -9.695687 0.000000 0.000000 0.000000 -15.947960 -2.262391 -2.111921 -54.010439 -6.017374 -3.637668 -4.490209 -17.378367 1.091075 0.000000 0.000000 0.000000 14.044842 -5.164155 -2.411158 64.754505 4.198150 -3.443708 5.671308 21.672329 2.053682 0.000000 0.000000 0.000000 
0.001465 0.933886 -0.002111 0.926149 3.000255 8.314723 7.000216 -0.451843 -5.882348 -0.204168 0.142785 -3.826075 1.442249 6.109716 8.139430 0.000000 0.000000 0.000000 -5.907225 0.621763 -8.405827 -3.368191 0.262038 -1.449129 -0.994842 -5.716096 9.413882 0.000000 0.000000 0.000000 4.529642 0.301354 -6.131475 -1.903516 0.951828 -4.431396 -6.916088 5.219459 5.604967 6.356354 -2.933480 -10.205405 0.000000 0.000000 0.000000 -15.558779 -2.065682 -2.116303 -54.137255 -6.222194 -3.554359 -4.797964 -18.070516 1.177658 0.000000 0.000000 0.000000 14.140735 -5.297545 -2.507938 64.769585 4.307674 -3.365207 5.682191 21.879622 2.075522 0.000000 0.000000 0.000000 
0.001788 0.933940 -0.002632 0.989669 2.958627 8.566974 6.692283 -0.477268 -6.444615 -0.064073 0.114534 -3.242075 1.574106 6.157495 7.569258 0.000000 0.000000 0.000000 -5.854208 0.641628 -8.703501 -3.636996 0.292950 -1.357930 -0.847492 -5.370851 9.245820 0.000000 0.000000 0.000000 4.399990 0.301161 -6.203433 -1.752834 0.889416 -4.564796 -7.038161 5.239544 5.692559 6.997198 -3.401307 -10.087402 0.000000 0.000000 0.000000 -15.504372 -2.070717 -2.103462 -53.551351 -6.158311 -3.537924 -5.879640 -19.565707 1.447776 0.000000 0.000000 0.000000 14.439440 -5.357621 -2.545519 64.987713 4.268731 -3.414610 5.664835 22.828098 2.191670 0.000000 0.000000 0.000000 
0.002172 0.933685 -0.003077 1.050184 2.719224 8.672398 6.550906 -0.485026 -6.657976 -0.533454 0.139412 -2.921948 1.785049 6.366333 7.105728 0.000000 0.000000 0.000000 -5.714413 0.651481 -8.686001 -4.000650 0.310155 -1.560039 -0.703653 -5.056647 9.083680 0.000000 0.000000 0.000000 4.298434 0.305109 -6.275931 -1.624895 0.831263 -4.454674 -7.141338 5.163241 5.754608 7.447078 -3.654808 -10.450581 0.000000 0.000000 0.000000 -14.915292 -1.678640 -2.138052 -53.764507 -6.126543 -3.614508 -7.242844 -21.742897 1.854718 0.000000 0.000000 0.000000 14.654404 -5.281005 -2.544977 64.923263 4.316866 -3.426794 5.692121 23.866856 2.318722 0.000000 0.000000 0.000000 
0.002632 0.933259 -0.003471 1.234614 2.377444 8.641188 6.410355 -0.484144 -6.702418 -0.951438 0.164622 -2.652647 2.250950 7.050542 6.695048 0.000000 0.000000 0.000000 -6.083824 0.639267 -8.632787 -4.007747 0.309073 -1.556289 -0.434240 -4.473380 8.868235 0.000000 0.000000 0.000000 4.188307 0.298036 -6.159865 -1.611380 0.825914 -4.710251 -7.025878 5.168033 6.149066 8.119288 -4.043856 -10.935533 0.000000 0.000000 0.000000 -14.738805 -1.887301 -1.954997 -52.951117 -6.187143 -3.555877 -9.698335 -24.735082 2.633196 0.000000 0.000000 0.000000 14.818288 -5.143666 -2.508716 64.729631 4.125706 -3.605416 6.317052 25.703830 2.677166 0.000000 0.000000 0.000000 
0.003231 0.932949 -0.003977 1.189140 1.803844 8.514206 6.451803 -0.466187 -6.497128 -1.342177 0.191419 -2.410872 2.600413 7.543075 6.353886 0.000000 0.000000 0.000000 -6.051569 0.643737 -8.534915 -3.928588 0.301168 -1.515679 -0.439877 -4.450316 8.553423 0.000000 0.000000 0.000000 4.347194 0.286743 -5.905204 -1.505354 0.779276 -4.940130 -7.071819 5.134056 6.548664 8.367031 -4.263076 -10.898445 0.000000 0.000000 0.000000 -14.477821 -1.616701 -1.951620 -52.509877 -6.114524 -3.607591 -13.249579 -29.679915 4.092511 0.000000 0.000000 0.000000 14.727711 -4.896643 -2.430006 64.633032 4.507585 -3.464611 7.094457 27.734243 3.114582 0.000000 0.000000 0.000000 
0.004012 0.932497 -0.004729 1.179360 1.463335 8.433599 6.731998 -0.458490 -6.603266 -1.795505 0.220758 -1.930035 3.008031 8.221997 6.218753 0.000000 0.000000 0.000000 -6.303842 0.645544 -8.684668 -3.533385 0.287763 -1.169010 -0.446758 -4.401134 8.248186 0.000000 0.000000 0.000000 4.363982 0.284146 -5.822879 -1.410572 0.732039 -4.675837 -6.970621 4.806213 6.613548 9.399059 -4.872543 -11.583132 0.000000 0.000000 0.000000 -14.551075 -1.772898 -1.785486 -52.091366 -6.011612 -3.620936 -17.458454 -37.196131 6.597457 0.000000 0.000000 0.000000 14.393733 -4.667592 -2.389499 64.401434 4.594124 -3.438138 9.496542 30.827558 4.152612 0.000000 0.000000 0.000000 
0.004923 0.932479 -0.005718 1.081259 0.735915 8.327210 6.746133 -0.450243 -6.735121 -1.921077 0.219270 -1.041445 3.376912 8.690460 5.582472 0.000000 0.000000 0.000000 -6.263113 0.665703 -8.863335 -3.304525 0.276402 -0.965884 -0.340667 -4.215279 8.117511 0.000000 0.000000 0.000000 4.478431 0.264061 -5.466113 -1.116250 0.603152 -4.841516 -7.094045 4.931446 6.873323 9.939989 -5.328215 -11.339487 0.000000 0.000000 0.000000 -14.928275 -1.685056 -1.834061 -51.251511 -5.934729 -3.588207 -23.986368 -46.378116 11.197007 0.000000 0.000000 0.000000 14.188824 -4.967924 -2.569489 63.939478 4.356087 -3.593896 13.927938 35.385873 6.314960 0.000000 0.000000 0.000000 
